<svg width="140" height="140" viewBox="0 0 140 140" fill="none" xmlns="http://www.w3.org/2000/svg">
<path fill-rule="evenodd" clip-rule="evenodd" d="M107.298 33.4834L76.8936 20.453C72.4915 18.5664 67.5085 18.5664 63.1064 20.453L32.7021 33.4834C30.5573 34.4027 29.1667 36.5116 29.1667 38.8451V69.487C29.1667 80.7903 34.6255 91.3978 43.8233 97.9677L63.2189 111.822C67.2753 114.719 72.7246 114.719 76.7811 111.822L96.1767 97.9677C105.375 91.3978 110.833 80.7903 110.833 69.487V38.8451C110.833 36.5116 109.443 34.4027 107.298 33.4834ZM91.4043 55.6235C93.1294 53.4672 92.7798 50.3207 90.6235 48.5957C88.4672 46.8706 85.3207 47.2202 83.5956 49.3765L63.7521 74.181L56.0355 66.4645C54.0829 64.5118 50.9171 64.5118 48.9645 66.4645C47.0118 68.4171 47.0118 71.5829 48.9645 73.5355L60.2361 84.8072C62.5541 87.1251 66.3722 86.9137 68.42 84.3539L91.4043 55.6235Z" fill="#356834"/>
</svg>
